# xmcd
#
# Track frame offsets:
#	150
#	7201
#	16365
#	23628
#	30482
#	38080
#	50330
#	60936
#	68084
#	74972
#	83143
#	95432
#	103023
#	112489
#
# Disc length: 1633 seconds
#
# Revision: 0
# Processed by: cddbd v1.5.1PL0 Copyright (c) Steve Scherf et al.
# Submitted via: dBpowerAMP V4.0
#
DISCID=ba065f0e
DTITLE=Josh Rench - Just Fiddlin' Around
DYEAR=2003
DGENRE=Country
TTITLE0=Boil Them Cabbage Down
TTITLE1=Sweet Evalina
TTITLE2=Soldiers Joy
TTITLE3=Redwing
TTITLE4=Turkey In The Straw
TTITLE5=Westphalia Waltz
TTITLE6=Old Joe Clark
TTITLE7=Ragtime Annie
TTITLE8=Golden Slippers
TTITLE9=Flop Eared Mule
TTITLE10=Faded Love
TTITLE11=Draggin' The Bow
TTITLE12=Cajun Fiddle
TTITLE13=Amazing Grace
EXTD=
EXTT0=
EXTT1=
EXTT2=
EXTT3=
EXTT4=
EXTT5=
EXTT6=
EXTT7=
EXTT8=
EXTT9=
EXTT10=
EXTT11=
EXTT12=
EXTT13=
PLAYORDER=
